<?xml version="1.0" encoding="UTF-8"?>
<svg width="24px" height="24px" viewBox="0 0 24 24" version="1.1" xmlns="http://www.w3.org/2000/svg" xmlns:xlink="http://www.w3.org/1999/xlink">
    <!-- Generator: Sketch 52.6 (67491) - http://www.bohemiancoding.com/sketch -->
    <title>button-live</title>
    <desc>Created with Sketch.</desc>
    <g id="button-live" stroke="none" stroke-width="1" fill="none" fill-rule="evenodd">
        <g id="Atoms-/-Buttons-/-Video-Actions" transform="translate(1.000000, 1.000000)" fill-rule="nonzero">
            <circle id="Oval" fill="#FF5A60" cx="11" cy="11" r="7.04"></circle>
            <circle id="Oval" fill="#FF5A60" opacity="0.485267857" cx="11" cy="11" r="11"></circle>
            <g id="controls-camera-play" transform="translate(7.480000, 7.480000)" fill="#FFFFFF">
                <path d="M6.81295576,3.49864224 C6.82680859,3.51230043 6.84579028,3.52 6.86560887,3.52 C6.88542745,3.52 6.90440914,3.51230043 6.91826197,3.49864224 C6.99687909,3.41992023 7.04054912,3.31476183 7.03999479,3.20550695 L7.03999479,1.01080845 C7.04004045,0.863821873 6.96108929,0.72729753 6.83134835,0.650011767 C6.70160742,0.572726003 6.53958638,0.565704902 6.40317085,0.631456907 L5.22984254,1.19680943 C5.08032805,1.26820346 4.98599697,1.41536101 4.98667025,1.57616098 L4.98667025,2.64015443 C4.98661368,2.68270639 4.99323979,2.72502157 5.0063235,2.76566269 C5.0159423,2.79593439 5.04535,2.81629251 5.07818986,2.81541371 L5.13333629,2.81541371 C5.76602324,2.81502346 6.37192248,3.0614886 6.81295576,3.49864224 Z" id="Shape"></path>
                <path d="M4.63466667,2.84005333 C4.6687078,2.83310498 4.6932014,2.80322278 4.69333333,2.76848 L4.69333333,0.44 C4.69333333,0.19699471 4.49633862,1.48797825e-17 4.25333333,0 L0.44,0 C0.19699471,-1.48797825e-17 2.9759565e-17,0.19699471 0,0.44 L0,3.66666667 C2.9759565e-17,3.90967196 0.19699471,4.10666667 0.44,4.10666667 L2.97821333,4.10666667 C3.00574566,4.10658859 3.03095311,4.09121543 3.04362667,4.06677333 C3.36405761,3.44069317 3.94767735,2.99071202 4.63466667,2.84005333 Z" id="Shape"></path>
                <path d="M5.13333333,3.22666667 C4.08031041,3.22666667 3.22666667,4.08031041 3.22666667,5.13333333 C3.22666667,6.18635626 4.08031041,7.04 5.13333333,7.04 C6.18635626,7.04 7.04,6.18635626 7.04,5.13333333 C7.03870702,4.08084645 6.18582022,3.22795965 5.13333333,3.22666667 Z M6.04706667,5.32312 L4.72706667,6.0588 C4.65893875,6.09675336 4.57580945,6.0958029 4.50856711,6.0563018 C4.44132477,6.01680069 4.40001984,5.94465301 4.4,5.86666667 L4.4,4.4 C4.40003124,4.32213915 4.44121505,4.25009408 4.50829188,4.21055913 C4.5753687,4.17102418 4.65834646,4.16988867 4.72648,4.20757333 L6.04648,4.93856 C6.11634684,4.97726491 6.15974805,5.05079613 6.1598699,5.13066747 C6.15999175,5.2105388 6.11681509,5.2842021 6.04706667,5.32312 Z" id="Shape"></path>
            </g>
        </g>
    </g>
</svg>